<?xml version="1.0" encoding="UTF-8"?>
<!DOCTYPE svg PUBLIC "-//W3C//DTD SVG 1.1//EN" "http://www.w3.org/Graphics/SVG/1.1/DTD/svg11.dtd" [
	<!ENTITY stroke_color "#666666">
	<!ENTITY fill_color "#ffffff">
]>
<svg enable-background="new 0 0 55 55" height="55px" id="svg2" inkscape:version="0.92pre3 r" sodipodi:docname="planets.svg" version="1.1" viewBox="0 0 55 55" width="55px" x="0px" xml:space="preserve" xmlns="http://www.w3.org/2000/svg" xmlns:cc="http://creativecommons.org/ns#" xmlns:dc="http://purl.org/dc/elements/1.1/" xmlns:inkscape="http://www.inkscape.org/namespaces/inkscape" xmlns:rdf="http://www.w3.org/1999/02/22-rdf-syntax-ns#" xmlns:sodipodi="http://sodipodi.sourceforge.net/DTD/sodipodi-0.dtd" xmlns:svg="http://www.w3.org/2000/svg" y="0px"><metadata id="metadata19"><rdf:RDF><cc:Work rdf:about=""><dc:format>image/svg+xml</dc:format><dc:type rdf:resource="http://purl.org/dc/dcmitype/StillImage"/></cc:Work></rdf:RDF></metadata><defs id="defs17"/><sodipodi:namedview bordercolor="#666666" borderopacity="1" gridtolerance="10" guidetolerance="10" id="namedview15" inkscape:current-layer="svg2" inkscape:cx="-1.5148305" inkscape:cy="27.5" inkscape:pageopacity="0" inkscape:pageshadow="2" inkscape:window-height="529" inkscape:window-maximized="1" inkscape:window-width="1024" inkscape:window-x="0" inkscape:window-y="24" inkscape:zoom="4.2909091" objecttolerance="10" pagecolor="#ffffff" showgrid="false"/><g id="g19" style="fill:#ffffff;stroke:#666666"><path d="m 27.733051,51.733051 c -13.233,0 -23.9999997,-10.767 -23.9999997,-24 0,-13.233 10.7669997,-24.0000002 23.9999997,-24.0000002 13.233,0 24,10.7670002 24,24.0000002 0,13.233 -10.767,24 -24,24 z m 0,-46.0000002 c -12.131,0 -21.9999997,9.8690002 -21.9999997,22.0000002 0,12.131 9.8689997,22 21.9999997,22 12.131,0 22,-9.869 22,-22 0,-12.131 -9.869,-22.0000002 -22,-22.0000002 z" id="path6" inkscape:connector-curvature="0" style="fill:#666666;stroke:none"/><path d="m 27.733051,40.351051 c -6.958,0 -12.618,-5.66 -12.618,-12.618 0,-6.958 5.661,-12.618 12.618,-12.618 6.958,0 12.618,5.661 12.618,12.618 0,6.958 -5.66,12.618 -12.618,12.618 z m 0,-23.236 c -5.855,0 -10.618,4.763 -10.618,10.618 0,5.854 4.763,10.618 10.618,10.618 5.854,0 10.618,-4.764 10.618,-10.618 0,-5.855 -4.764,-10.618 -10.618,-10.618 z" id="path8-3" inkscape:connector-curvature="0" style="fill:#666666;stroke:none"/><circle cx="43.09005" cy="9.7320509" id="circle10" r="4.4390001" style="fill:#ffffff;stroke:#666666"/><circle cx="20.813051" cy="36.790051" id="circle12" r="3.007" style="fill:#ffffff;stroke:#666666"/></g></svg>